<?xml version="1.0" encoding="UTF-8" standalone="no"?><svg xmlns="http://www.w3.org/2000/svg" xmlns:xlink="http://www.w3.org/1999/xlink" contentScriptType="application/ecmascript" contentStyleType="text/css" height="793px" preserveAspectRatio="none" style="width:649px;height:793px;background:#FFFFFF;" version="1.1" viewBox="0 0 649 793" width="649px" zoomAndPan="magnify"><defs/><g><rect fill="#FFFFFF" height="781.6143" style="stroke:#BBBBBB;stroke-width:1.0;" width="367" x="11" y="6"/><text fill="#000000" font-family="Verdana" font-size="13" font-weight="bold" lengthAdjust="spacing" textLength="96" x="146.5" y="19.0698">Normal world</text><rect fill="#FFFFFF" height="781.6143" style="stroke:#BBBBBB;stroke-width:1.0;" width="173" x="402.5" y="6"/><text fill="#000000" font-family="Verdana" font-size="13" font-weight="bold" lengthAdjust="spacing" textLength="94" x="442" y="19.0698">Secure world</text><line style="stroke:#000000;stroke-width:1.0;stroke-dasharray:5.0,5.0;" x1="98" x2="98" y1="74.8286" y2="332.2231"/><line style="stroke:#000000;stroke-width:1.0;stroke-dasharray:1.0,4.0;" x1="98" x2="98" y1="332.2231" y2="360.2231"/><line style="stroke:#000000;stroke-width:1.0;stroke-dasharray:5.0,5.0;" x1="98" x2="98" y1="360.2231" y2="781.6143"/><rect fill="#FFFFFF" height="249.3945" style="stroke:#FFFFFF;stroke-width:1.0;" width="10" x="93" y="82.8286"/><line style="stroke:#000000;stroke-width:1.0;" x1="93" x2="93" y1="82.8286" y2="332.2231"/><line style="stroke:#000000;stroke-width:1.0;" x1="103" x2="103" y1="82.8286" y2="332.2231"/><line style="stroke:#000000;stroke-width:1.0;" x1="93" x2="103" y1="82.8286" y2="82.8286"/><rect fill="#FFFFFF" height="421.3911" style="stroke:#FFFFFF;stroke-width:1.0;" width="10" x="93" y="360.2231"/><line style="stroke:#000000;stroke-width:1.0;" x1="93" x2="93" y1="360.2231" y2="781.6143"/><line style="stroke:#000000;stroke-width:1.0;" x1="103" x2="103" y1="360.2231" y2="781.6143"/><line style="stroke:#000000;stroke-width:1.0;" x1="93" x2="103" y1="781.6143" y2="781.6143"/><rect fill="#FFFFFF" height="160.9966" style="stroke:#000000;stroke-width:1.0;" width="10" x="98" y="133.4272"/><rect fill="#FFFFFF" height="174.9966" style="stroke:#000000;stroke-width:1.0;" width="10" x="98" y="575.6177"/><line style="stroke:#000000;stroke-width:1.0;stroke-dasharray:5.0,5.0;" x1="287" x2="287" y1="74.8286" y2="332.2231"/><line style="stroke:#000000;stroke-width:1.0;stroke-dasharray:1.0,4.0;" x1="287" x2="287" y1="332.2231" y2="360.2231"/><line style="stroke:#000000;stroke-width:1.0;stroke-dasharray:5.0,5.0;" x1="287" x2="287" y1="360.2231" y2="781.6143"/><rect fill="#FFFFFF" height="249.3945" style="stroke:#FFFFFF;stroke-width:1.0;" width="10" x="282" y="82.8286"/><line style="stroke:#000000;stroke-width:1.0;" x1="282" x2="282" y1="82.8286" y2="332.2231"/><line style="stroke:#000000;stroke-width:1.0;" x1="292" x2="292" y1="82.8286" y2="332.2231"/><line style="stroke:#000000;stroke-width:1.0;" x1="282" x2="292" y1="82.8286" y2="82.8286"/><rect fill="#FFFFFF" height="421.3911" style="stroke:#FFFFFF;stroke-width:1.0;" width="10" x="282" y="360.2231"/><line style="stroke:#000000;stroke-width:1.0;" x1="282" x2="282" y1="360.2231" y2="781.6143"/><line style="stroke:#000000;stroke-width:1.0;" x1="292" x2="292" y1="360.2231" y2="781.6143"/><line style="stroke:#000000;stroke-width:1.0;" x1="282" x2="292" y1="781.6143" y2="781.6143"/><rect fill="#FFFFFF" height="29.7993" style="stroke:#000000;stroke-width:1.0;" width="10" x="287" y="281.4238"/><rect fill="#FFFFFF" height="102.3979" style="stroke:#000000;stroke-width:1.0;" width="10" x="287" y="486.2197"/><line style="stroke:#000000;stroke-width:1.0;stroke-dasharray:5.0,5.0;" x1="489" x2="489" y1="74.8286" y2="332.2231"/><line style="stroke:#000000;stroke-width:1.0;stroke-dasharray:1.0,4.0;" x1="489" x2="489" y1="332.2231" y2="360.2231"/><line style="stroke:#000000;stroke-width:1.0;stroke-dasharray:5.0,5.0;" x1="489" x2="489" y1="360.2231" y2="781.6143"/><rect fill="#FFFFFF" height="88.3979" style="stroke:#000000;stroke-width:1.0;" width="10" x="484" y="163.2266"/><rect fill="#FFFFFF" height="117.1973" style="stroke:#000000;stroke-width:1.0;" width="10" x="484" y="382.0225"/><rect fill="#FFFFFF" height="29.7993" style="stroke:#000000;stroke-width:1.0;" width="10" x="484" y="516.019"/><rect fill="#FFFFFF" height="115.3979" style="stroke:#000000;stroke-width:1.0;" width="10" x="484" y="605.417"/><rect fill="#FFFFFF" height="48.0293" style="stroke:#000000;stroke-width:1.0;" width="106" x="45" y="25.7993"/><text fill="#000000" font-family="Verdana" font-size="14" lengthAdjust="spacing" textLength="92" x="52" y="46.8745">Normal world</text><text fill="#000000" font-family="Verdana" font-size="14" lengthAdjust="spacing" textLength="74" x="61" y="63.8892">split driver</text><rect fill="#FFFFFF" height="31.0146" style="stroke:#000000;stroke-width:1.0;" width="114" x="230" y="42.814"/><text fill="#000000" font-family="Verdana" font-size="14" lengthAdjust="spacing" textLength="100" x="237" y="63.8892">OP-TEE Driver</text><rect fill="#FFFFFF" height="48.0293" style="stroke:#000000;stroke-width:1.0;" width="105" x="436.5" y="25.7993"/><text fill="#000000" font-family="Verdana" font-size="14" lengthAdjust="spacing" textLength="91" x="443.5" y="46.8745">Secure world</text><text fill="#000000" font-family="Verdana" font-size="14" lengthAdjust="spacing" textLength="74" x="452" y="63.8892">split driver</text><line style="stroke:#000000;stroke-width:1.0;" x1="292" x2="334" y1="120.4272" y2="120.4272"/><line style="stroke:#000000;stroke-width:1.0;" x1="334" x2="334" y1="120.4272" y2="133.4272"/><line style="stroke:#000000;stroke-width:1.0;" x1="293" x2="334" y1="133.4272" y2="133.4272"/><polygon fill="#000000" points="303,129.4272,293,133.4272,303,137.4272,299,133.4272" style="stroke:#000000;stroke-width:1.0;"/><text fill="#000000" font-family="Verdana" font-size="13" lengthAdjust="spacing" textLength="115" x="299" y="99.8984">Register interrupt</text><text fill="#000000" font-family="Verdana" font-size="13" lengthAdjust="spacing" textLength="48" x="299" y="115.6978">handler</text><line style="stroke:#000000;stroke-width:1.0;" x1="103" x2="150" y1="120.4272" y2="120.4272"/><line style="stroke:#000000;stroke-width:1.0;" x1="150" x2="150" y1="120.4272" y2="133.4272"/><line style="stroke:#000000;stroke-width:1.0;" x1="109" x2="150" y1="133.4272" y2="133.4272"/><polygon fill="#000000" points="119,129.4272,109,133.4272,119,137.4272,115,133.4272" style="stroke:#000000;stroke-width:1.0;"/><text fill="#000000" font-family="Verdana" font-size="13" lengthAdjust="spacing" textLength="115" x="115" y="99.8984">Register interrupt</text><text fill="#000000" font-family="Verdana" font-size="13" lengthAdjust="spacing" textLength="48" x="115" y="115.6978">handler</text><polygon fill="#000000" points="472,159.2266,482,163.2266,472,167.2266,476,163.2266" style="stroke:#000000;stroke-width:1.0;"/><line style="stroke:#000000;stroke-width:1.0;" x1="108" x2="478" y1="163.2266" y2="163.2266"/><text fill="#000000" font-family="Verdana" font-size="13" lengthAdjust="spacing" textLength="115" x="115" y="158.4971">Register interrupt</text><line style="stroke:#000000;stroke-width:1.0;" x1="494" x2="536" y1="208.8252" y2="208.8252"/><line style="stroke:#000000;stroke-width:1.0;" x1="536" x2="536" y1="208.8252" y2="221.8252"/><line style="stroke:#000000;stroke-width:1.0;" x1="495" x2="536" y1="221.8252" y2="221.8252"/><polygon fill="#000000" points="505,217.8252,495,221.8252,505,225.8252,501,221.8252" style="stroke:#000000;stroke-width:1.0;"/><text fill="#000000" font-family="Verdana" font-size="13" lengthAdjust="spacing" textLength="115" x="501" y="188.2964">Register interrupt</text><text fill="#000000" font-family="Verdana" font-size="13" lengthAdjust="spacing" textLength="48" x="501" y="204.0957">handler</text><polygon fill="#000000" points="119,247.6245,109,251.6245,119,255.6245,115,251.6245" style="stroke:#000000;stroke-width:1.0;"/><line style="stroke:#000000;stroke-width:1.0;stroke-dasharray:2.0,2.0;" x1="113" x2="483" y1="251.6245" y2="251.6245"/><text fill="#000000" font-family="Verdana" font-size="13" lengthAdjust="spacing" textLength="91" x="125" y="246.895">Notification id</text><polygon fill="#000000" points="275,277.4238,285,281.4238,275,285.4238,279,281.4238" style="stroke:#000000;stroke-width:1.0;"/><line style="stroke:#000000;stroke-width:1.0;" x1="108" x2="281" y1="281.4238" y2="281.4238"/><text fill="#000000" font-family="Verdana" font-size="13" lengthAdjust="spacing" textLength="129" x="115" y="276.6943">Set notification line</text><line style="stroke:#000000;stroke-width:1.0;" x1="297" x2="339" y1="311.2231" y2="311.2231"/><line style="stroke:#000000;stroke-width:1.0;" x1="339" x2="339" y1="311.2231" y2="324.2231"/><line style="stroke:#000000;stroke-width:1.0;" x1="292" x2="339" y1="324.2231" y2="324.2231"/><polygon fill="#000000" points="302,320.2231,292,324.2231,302,328.2231,298,324.2231" style="stroke:#000000;stroke-width:1.0;"/><text fill="#000000" font-family="Verdana" font-size="13" lengthAdjust="spacing" textLength="132" x="304" y="306.4937">Register notification</text><polygon fill="#000000" points="505,378.0225,495,382.0225,505,386.0225,501,382.0225" style="stroke:#000000;stroke-width:1.0;"/><line style="stroke:#000000;stroke-width:1.0;" x1="499" x2="642" y1="382.0225" y2="382.0225"/><text fill="#000000" font-family="Verdana" font-size="13" lengthAdjust="spacing" textLength="130" x="511" y="377.293">Interrupt registered</text><line style="stroke:#000000;stroke-width:1.0;" x1="494" x2="536" y1="411.8218" y2="411.8218"/><line style="stroke:#000000;stroke-width:1.0;" x1="536" x2="536" y1="411.8218" y2="424.8218"/><line style="stroke:#000000;stroke-width:1.0;" x1="495" x2="536" y1="424.8218" y2="424.8218"/><polygon fill="#000000" points="505,420.8218,495,424.8218,505,428.8218,501,424.8218" style="stroke:#000000;stroke-width:1.0;"/><text fill="#000000" font-family="Verdana" font-size="13" lengthAdjust="spacing" textLength="115" x="501" y="407.0923">Disable interrupts</text><polygon fill="#000000" points="308,482.2197,298,486.2197,308,490.2197,304,486.2197" style="stroke:#000000;stroke-width:1.0;"/><line style="stroke:#000000;stroke-width:1.0;" x1="302" x2="483" y1="486.2197" y2="486.2197"/><text fill="#000000" font-family="Verdana" font-size="13" lengthAdjust="spacing" textLength="156" x="314" y="449.8916">Send async notification</text><text fill="#000000" font-family="Verdana" font-size="13" lengthAdjust="spacing" textLength="163" x="314" y="465.6909">by triggering non-secure</text><text fill="#000000" font-family="Verdana" font-size="13" lengthAdjust="spacing" textLength="120" x="314" y="481.4902">software interrupt</text><polygon fill="#000000" points="472,512.019,482,516.019,472,520.019,476,516.019" style="stroke:#000000;stroke-width:1.0;"/><line style="stroke:#000000;stroke-width:1.0;" x1="297" x2="478" y1="516.019" y2="516.019"/><text fill="#000000" font-family="Verdana" font-size="13" lengthAdjust="spacing" textLength="142" x="304" y="511.2896">Get notification value</text><polygon fill="#000000" points="308,541.8184,298,545.8184,308,549.8184,304,545.8184" style="stroke:#000000;stroke-width:1.0;"/><line style="stroke:#000000;stroke-width:1.0;stroke-dasharray:2.0,2.0;" x1="302" x2="483" y1="545.8184" y2="545.8184"/><text fill="#000000" font-family="Verdana" font-size="13" lengthAdjust="spacing" textLength="114" x="314" y="541.0889">notification value</text><polygon fill="#000000" points="119,571.6177,109,575.6177,119,579.6177,115,575.6177" style="stroke:#000000;stroke-width:1.0;"/><line style="stroke:#000000;stroke-width:1.0;" x1="113" x2="281" y1="575.6177" y2="575.6177"/><text fill="#000000" font-family="Verdana" font-size="13" lengthAdjust="spacing" textLength="122" x="125" y="570.8882">Software interrupt</text><polygon fill="#000000" points="472,601.417,482,605.417,472,609.417,476,605.417" style="stroke:#000000;stroke-width:1.0;"/><line style="stroke:#000000;stroke-width:1.0;" x1="108" x2="478" y1="605.417" y2="605.417"/><text fill="#000000" font-family="Verdana" font-size="13" lengthAdjust="spacing" textLength="56" x="115" y="600.6875">Fast call</text><line style="stroke:#000000;stroke-width:1.0;" x1="494" x2="536" y1="635.2163" y2="635.2163"/><line style="stroke:#000000;stroke-width:1.0;" x1="536" x2="536" y1="635.2163" y2="648.2163"/><line style="stroke:#000000;stroke-width:1.0;" x1="495" x2="536" y1="648.2163" y2="648.2163"/><polygon fill="#000000" points="505,644.2163,495,648.2163,505,652.2163,501,648.2163" style="stroke:#000000;stroke-width:1.0;"/><text fill="#000000" font-family="Verdana" font-size="13" lengthAdjust="spacing" textLength="126" x="501" y="630.4868">Read serial console</text><line style="stroke:#000000;stroke-width:1.0;" x1="494" x2="536" y1="678.0156" y2="678.0156"/><line style="stroke:#000000;stroke-width:1.0;" x1="536" x2="536" y1="678.0156" y2="691.0156"/><line style="stroke:#000000;stroke-width:1.0;" x1="495" x2="536" y1="691.0156" y2="691.0156"/><polygon fill="#000000" points="505,687.0156,495,691.0156,505,695.0156,501,691.0156" style="stroke:#000000;stroke-width:1.0;"/><text fill="#000000" font-family="Verdana" font-size="13" lengthAdjust="spacing" textLength="112" x="501" y="673.2861">Enable interrupts</text><polygon fill="#000000" points="119,716.8149,109,720.8149,119,724.8149,115,720.8149" style="stroke:#000000;stroke-width:1.0;"/><line style="stroke:#000000;stroke-width:1.0;stroke-dasharray:2.0,2.0;" x1="113" x2="483" y1="720.8149" y2="720.8149"/><text fill="#000000" font-family="Verdana" font-size="13" lengthAdjust="spacing" textLength="105" x="125" y="716.0854">Serial character</text><line style="stroke:#000000;stroke-width:1.0;" x1="108" x2="150" y1="750.6143" y2="750.6143"/><line style="stroke:#000000;stroke-width:1.0;" x1="150" x2="150" y1="750.6143" y2="763.6143"/><line style="stroke:#000000;stroke-width:1.0;" x1="103" x2="150" y1="763.6143" y2="763.6143"/><polygon fill="#000000" points="113,759.6143,103,763.6143,113,767.6143,109,763.6143" style="stroke:#000000;stroke-width:1.0;"/><text fill="#000000" font-family="Verdana" font-size="13" lengthAdjust="spacing" textLength="165" x="115" y="745.8848">Store character in buffer</text><!--MD5=[af731d246c06b525da316cc04ec61656]
@startuml plit-driver
!theme plain
!pragma teoz true

hide footbox
skinparam ParticipantPadding 30

skinparam BoxPadding 0

skinparam SequenceBoxBorderColor #bbbbbb

box "Normal world"
participant "Normal world\nsplit driver" as normal
participant "OP-TEE Driver" as driver
end box
box "Secure world"
participant "Secure world\nsplit driver" as pta
end box

activate driver
activate normal
driver -> driver: Register interrupt\nhandler
&normal -> normal: Register interrupt\nhandler
activate normal
normal -> pta: Register interrupt
activate pta
pta -> pta: Register interrupt\nhandler
return Notification id
normal -> driver: Set notification line
activate driver
deactivate normal
driver -> driver: Register notification
deactivate driver

...

pta <- : Interrupt registered
activate pta
pta -> pta: Disable interrupts
driver <- pta: Send async notification\nby triggering non-secure\nsoftware interrupt
activate driver
deactivate pta

driver -> pta: Get notification value
activate pta
return notification value



driver -> normal: Software interrupt
activate normal
deactivate driver
normal -> pta: Fast call
activate pta
pta -> pta: Read serial console
pta -> pta: Enable interrupts
normal <- - pta: Serial character
deactivate pta
normal -> normal: Store character in buffer
deactivate normal
@enduml

@startuml plit-driver







<style>
  root {
    BackgroundColor white
    FontColor black
    FontName Verdana
    HyperLinkColor blue
    LineColor black
    LineThickness 1
    Margin 5
  }
  caption {
    LineThickness 0
  }
  footer {
    LineThickness 0
  }
  header {
    LineThickness 0
  }
  node {
    MaximumWidth 300
  }
  title {
    FontSize 22
    LineThickness 0
  }
</style>

skinparam ArrowLollipopColor black
skinparam BackgroundColor white
skinparam DefaultFontName Verdana
skinparam DefaultMonospacedFontName Courier
skinparam LifelineStrategy nosolid
skinparam ParticipantPadding 10
skinparam SequenceLifeLineBorderColor black
skinparam Shadowing false
skinparam UseBetaStyle true

skinparam Activity {
  BackgroundColor white
  BarColor black
  BorderColor black
  FontColor black
  FontName Verdana
}
skinparam Boundary {
  FontColor black
}
skinparam Box {
  Padding 5
}
skinparam CircledCharacter {
  FontColor black
  FontName Courier
  Radius 9
}
skinparam Class {
  BackgroundColor white
  BorderColor black
  FontColor black
  FontName Verdana
}
skinparam ClassAttribute {
  FontColor black
  FontName Verdana
}
skinparam ClassStereotype {
  FontColor black
  FontName Verdana
}
skinparam Footer {
  FontColor black
  FontName Verdana
}
skinparam Header {
  FontColor black
  FontName Verdana
}
skinparam Hyperlink {
  Color blue
}
skinparam IconPackage {
  Color black
  BackgroundColor white
}
skinparam IconPrivate {
  Color black
  BackgroundColor white
}
skinparam IconProtected {
  Color black
  BackgroundColor white
}
skinparam IconPublic {
  Color black
  BackgroundColor white
}
skinparam Note {
  FontColor black
  FontName Verdana
}
skinparam Package {
  BorderColor black
  FontColor black
  FontName Verdana
}
skinparam State {
  BackgroundColor white
  BorderColor black
}
skinparam StereotypeA {
  BackgroundColor white
  BorderColor black
}
skinparam StereotypeC {
  BackgroundColor white
  BorderColor black
}
skinparam StereotypeE {
  BackgroundColor white
  BorderColor black
}
skinparam StereotypeI {
  BackgroundColor white
  BorderColor black
}
skinparam StereotypeN {
  BackgroundColor white
  BorderColor black
}
skinparam UseCaseStereoType {
  FontColor black
  FontName Verdana
}
!pragma teoz true

hide footbox
skinparam ParticipantPadding 30

skinparam BoxPadding 0

skinparam SequenceBoxBorderColor #bbbbbb

box "Normal world"
participant "Normal world\nsplit driver" as normal
participant "OP-TEE Driver" as driver
end box
box "Secure world"
participant "Secure world\nsplit driver" as pta
end box

activate driver
activate normal
driver -> driver: Register interrupt\nhandler
&normal -> normal: Register interrupt\nhandler
activate normal
normal -> pta: Register interrupt
activate pta
pta -> pta: Register interrupt\nhandler
return Notification id
normal -> driver: Set notification line
activate driver
deactivate normal
driver -> driver: Register notification
deactivate driver

...

pta <- : Interrupt registered
activate pta
pta -> pta: Disable interrupts
driver <- pta: Send async notification\nby triggering non-secure\nsoftware interrupt
activate driver
deactivate pta

driver -> pta: Get notification value
activate pta
return notification value



driver -> normal: Software interrupt
activate normal
deactivate driver
normal -> pta: Fast call
activate pta
pta -> pta: Read serial console
pta -> pta: Enable interrupts
normal <- - pta: Serial character
deactivate pta
normal -> normal: Store character in buffer
deactivate normal
@enduml

PlantUML version 1.2021.10(Mon Aug 30 15:43:48 CEST 2021)
(GPL source distribution)
Java Runtime: Java(TM) SE Runtime Environment
JVM: Java HotSpot(TM) 64-Bit Server VM
Default Encoding: Cp1252
Language: nl
Country: BE
--></g></svg>