<?xml version="1.0" encoding="UTF-8" standalone="no"?><svg xmlns="http://www.w3.org/2000/svg" xmlns:xlink="http://www.w3.org/1999/xlink" contentScriptType="application/ecmascript" contentStyleType="text/css" height="753px" preserveAspectRatio="none" style="width:803px;height:753px;background:#FFFFFF;" version="1.1" viewBox="0 0 803 753" width="803px" zoomAndPan="magnify"><defs/><g><rect fill="#FFFFFF" height="741.7109" style="stroke:#BBBBBB;stroke-width:1.0;" width="405.5" x="11" y="6"/><text fill="#000000" font-family="Verdana" font-size="13" font-weight="bold" lengthAdjust="spacing" textLength="102" x="162.75" y="18.0669">Normal world</text><rect fill="#FFFFFF" height="741.7109" style="stroke:#BBBBBB;stroke-width:1.0;" width="311.5" x="428.5" y="6"/><text fill="#000000" font-family="Verdana" font-size="13" font-weight="bold" lengthAdjust="spacing" textLength="98" x="535.25" y="18.0669">Secure world</text><rect fill="#FFFFFF" height="229.9297" style="stroke:#FFFFFF;stroke-width:1.0;" width="10" x="63.5" y="270.5234"/><line style="stroke:#000000;stroke-width:1.0;" x1="63.5" x2="63.5" y1="270.5234" y2="500.4531"/><line style="stroke:#000000;stroke-width:1.0;" x1="73.5" x2="73.5" y1="270.5234" y2="500.4531"/><line style="stroke:#000000;stroke-width:1.0;" x1="63.5" x2="73.5" y1="270.5234" y2="270.5234"/><rect fill="#FFFFFF" height="159.6641" style="stroke:#FFFFFF;stroke-width:1.0;" width="10" x="63.5" y="528.4531"/><line style="stroke:#000000;stroke-width:1.0;" x1="63.5" x2="63.5" y1="528.4531" y2="688.1172"/><line style="stroke:#000000;stroke-width:1.0;" x1="73.5" x2="73.5" y1="528.4531" y2="688.1172"/><rect fill="#FFFFFF" height="87.3984" style="stroke:#000000;stroke-width:1.0;" width="10" x="68.5" y="549.5859"/><rect fill="#FFFFFF" height="29.1328" style="stroke:#000000;stroke-width:1.0;" width="10" x="327.5" y="175.125"/><rect fill="#FFFFFF" height="29.1328" style="stroke:#000000;stroke-width:1.0;" width="10" x="327.5" y="304.6563"/><rect fill="#FFFFFF" height="79.2656" style="stroke:#FFFFFF;stroke-width:1.0;" width="10" x="327.5" y="421.1875"/><line style="stroke:#000000;stroke-width:1.0;" x1="327.5" x2="327.5" y1="421.1875" y2="500.4531"/><line style="stroke:#000000;stroke-width:1.0;" x1="337.5" x2="337.5" y1="421.1875" y2="500.4531"/><line style="stroke:#000000;stroke-width:1.0;" x1="327.5" x2="337.5" y1="421.1875" y2="421.1875"/><rect fill="#FFFFFF" height="143.6641" style="stroke:#FFFFFF;stroke-width:1.0;" width="10" x="327.5" y="528.4531"/><line style="stroke:#000000;stroke-width:1.0;" x1="327.5" x2="327.5" y1="528.4531" y2="672.1172"/><line style="stroke:#000000;stroke-width:1.0;" x1="337.5" x2="337.5" y1="528.4531" y2="672.1172"/><line style="stroke:#000000;stroke-width:1.0;" x1="327.5" x2="337.5" y1="672.1172" y2="672.1172"/><rect fill="#FFFFFF" height="87.3984" style="stroke:#000000;stroke-width:1.0;" width="10" x="506.5" y="145.9922"/><rect fill="#FFFFFF" height="58.2656" style="stroke:#000000;stroke-width:1.0;" width="10" x="506.5" y="392.0547"/><rect fill="#FFFFFF" height="388.5938" style="stroke:#FFFFFF;stroke-width:1.0;" width="10" x="677.5" y="111.8594"/><line style="stroke:#000000;stroke-width:1.0;" x1="677.5" x2="677.5" y1="111.8594" y2="500.4531"/><line style="stroke:#000000;stroke-width:1.0;" x1="687.5" x2="687.5" y1="111.8594" y2="500.4531"/><line style="stroke:#000000;stroke-width:1.0;" x1="677.5" x2="687.5" y1="111.8594" y2="111.8594"/><rect fill="#FFFFFF" height="159.6641" style="stroke:#FFFFFF;stroke-width:1.0;" width="10" x="677.5" y="528.4531"/><line style="stroke:#000000;stroke-width:1.0;" x1="677.5" x2="677.5" y1="528.4531" y2="688.1172"/><line style="stroke:#000000;stroke-width:1.0;" x1="687.5" x2="687.5" y1="528.4531" y2="688.1172"/><rect fill="#FFFFFF" height="122.5313" style="stroke:#000000;stroke-width:1.0;" width="10" x="682.5" y="362.9219"/><rect fill="#FFFFFF" height="29.1328" style="stroke:#000000;stroke-width:1.0;" width="10" x="682.5" y="578.7188"/><line style="stroke:#000000;stroke-width:1.0;stroke-dasharray:5.0,5.0;" x1="68" x2="68" y1="72.7266" y2="500.4531"/><line style="stroke:#000000;stroke-width:1.0;stroke-dasharray:1.0,4.0;" x1="68" x2="68" y1="500.4531" y2="528.4531"/><line style="stroke:#000000;stroke-width:1.0;stroke-dasharray:5.0,5.0;" x1="68" x2="68" y1="528.4531" y2="697.1172"/><line style="stroke:#000000;stroke-width:1.0;stroke-dasharray:5.0,5.0;" x1="332.5" x2="332.5" y1="72.7266" y2="500.4531"/><line style="stroke:#000000;stroke-width:1.0;stroke-dasharray:1.0,4.0;" x1="332.5" x2="332.5" y1="500.4531" y2="528.4531"/><line style="stroke:#000000;stroke-width:1.0;stroke-dasharray:5.0,5.0;" x1="332.5" x2="332.5" y1="528.4531" y2="697.1172"/><line style="stroke:#000000;stroke-width:1.0;stroke-dasharray:5.0,5.0;" x1="511.5" x2="511.5" y1="72.7266" y2="500.4531"/><line style="stroke:#000000;stroke-width:1.0;stroke-dasharray:1.0,4.0;" x1="511.5" x2="511.5" y1="500.4531" y2="528.4531"/><line style="stroke:#000000;stroke-width:1.0;stroke-dasharray:5.0,5.0;" x1="511.5" x2="511.5" y1="528.4531" y2="697.1172"/><line style="stroke:#000000;stroke-width:1.0;stroke-dasharray:5.0,5.0;" x1="682" x2="682" y1="72.7266" y2="500.4531"/><line style="stroke:#000000;stroke-width:1.0;stroke-dasharray:1.0,4.0;" x1="682" x2="682" y1="500.4531" y2="528.4531"/><line style="stroke:#000000;stroke-width:1.0;stroke-dasharray:5.0,5.0;" x1="682" x2="682" y1="528.4531" y2="697.1172"/><rect fill="#FFFFFF" height="46.5938" style="stroke:#000000;stroke-width:1.0;" width="87" x="25" y="25.1328"/><text fill="#000000" font-family="Verdana" font-size="14" lengthAdjust="spacing" textLength="51" x="43" y="45.1279">Normal</text><text fill="#000000" font-family="Verdana" font-size="14" lengthAdjust="spacing" textLength="73" x="32" y="61.4248">SSP driver</text><rect fill="#FFFFFF" height="46.5938" style="stroke:#000000;stroke-width:1.0;" width="87" x="25" y="696.1172"/><text fill="#000000" font-family="Verdana" font-size="14" lengthAdjust="spacing" textLength="51" x="43" y="716.1123">Normal</text><text fill="#000000" font-family="Verdana" font-size="14" lengthAdjust="spacing" textLength="73" x="32" y="732.4092">SSP driver</text><rect fill="#FFFFFF" height="30.2969" style="stroke:#000000;stroke-width:1.0;" width="140" x="262.5" y="41.4297"/><text fill="#000000" font-family="Verdana" font-size="14" lengthAdjust="spacing" textLength="126" x="269.5" y="61.4248">Normal controller</text><rect fill="#FFFFFF" height="30.2969" style="stroke:#000000;stroke-width:1.0;" width="140" x="262.5" y="696.1172"/><text fill="#000000" font-family="Verdana" font-size="14" lengthAdjust="spacing" textLength="126" x="269.5" y="716.1123">Normal controller</text><rect fill="#FFFFFF" height="30.2969" style="stroke:#000000;stroke-width:1.0;" width="138" x="442.5" y="41.4297"/><text fill="#000000" font-family="Verdana" font-size="14" lengthAdjust="spacing" textLength="124" x="449.5" y="61.4248">Secure controller</text><rect fill="#FFFFFF" height="30.2969" style="stroke:#000000;stroke-width:1.0;" width="138" x="442.5" y="696.1172"/><text fill="#000000" font-family="Verdana" font-size="14" lengthAdjust="spacing" textLength="124" x="449.5" y="716.1123">Secure controller</text><rect fill="#FFFFFF" height="46.5938" style="stroke:#000000;stroke-width:1.0;" width="87" x="639" y="25.1328"/><text fill="#000000" font-family="Verdana" font-size="14" lengthAdjust="spacing" textLength="49" x="658" y="45.1279">Secure</text><text fill="#000000" font-family="Verdana" font-size="14" lengthAdjust="spacing" textLength="73" x="646" y="61.4248">SSP driver</text><rect fill="#FFFFFF" height="46.5938" style="stroke:#000000;stroke-width:1.0;" width="87" x="639" y="696.1172"/><text fill="#000000" font-family="Verdana" font-size="14" lengthAdjust="spacing" textLength="49" x="658" y="716.1123">Secure</text><text fill="#000000" font-family="Verdana" font-size="14" lengthAdjust="spacing" textLength="73" x="646" y="732.4092">SSP driver</text><rect fill="#FFFFFF" height="229.9297" style="stroke:#FFFFFF;stroke-width:1.0;" width="10" x="63.5" y="270.5234"/><line style="stroke:#000000;stroke-width:1.0;" x1="63.5" x2="63.5" y1="270.5234" y2="500.4531"/><line style="stroke:#000000;stroke-width:1.0;" x1="73.5" x2="73.5" y1="270.5234" y2="500.4531"/><line style="stroke:#000000;stroke-width:1.0;" x1="63.5" x2="73.5" y1="270.5234" y2="270.5234"/><rect fill="#FFFFFF" height="159.6641" style="stroke:#FFFFFF;stroke-width:1.0;" width="10" x="63.5" y="528.4531"/><line style="stroke:#000000;stroke-width:1.0;" x1="63.5" x2="63.5" y1="528.4531" y2="688.1172"/><line style="stroke:#000000;stroke-width:1.0;" x1="73.5" x2="73.5" y1="528.4531" y2="688.1172"/><rect fill="#FFFFFF" height="87.3984" style="stroke:#000000;stroke-width:1.0;" width="10" x="68.5" y="549.5859"/><rect fill="#FFFFFF" height="29.1328" style="stroke:#000000;stroke-width:1.0;" width="10" x="327.5" y="175.125"/><rect fill="#FFFFFF" height="29.1328" style="stroke:#000000;stroke-width:1.0;" width="10" x="327.5" y="304.6563"/><rect fill="#FFFFFF" height="79.2656" style="stroke:#FFFFFF;stroke-width:1.0;" width="10" x="327.5" y="421.1875"/><line style="stroke:#000000;stroke-width:1.0;" x1="327.5" x2="327.5" y1="421.1875" y2="500.4531"/><line style="stroke:#000000;stroke-width:1.0;" x1="337.5" x2="337.5" y1="421.1875" y2="500.4531"/><line style="stroke:#000000;stroke-width:1.0;" x1="327.5" x2="337.5" y1="421.1875" y2="421.1875"/><rect fill="#FFFFFF" height="143.6641" style="stroke:#FFFFFF;stroke-width:1.0;" width="10" x="327.5" y="528.4531"/><line style="stroke:#000000;stroke-width:1.0;" x1="327.5" x2="327.5" y1="528.4531" y2="672.1172"/><line style="stroke:#000000;stroke-width:1.0;" x1="337.5" x2="337.5" y1="528.4531" y2="672.1172"/><line style="stroke:#000000;stroke-width:1.0;" x1="327.5" x2="337.5" y1="672.1172" y2="672.1172"/><rect fill="#FFFFFF" height="87.3984" style="stroke:#000000;stroke-width:1.0;" width="10" x="506.5" y="145.9922"/><rect fill="#FFFFFF" height="58.2656" style="stroke:#000000;stroke-width:1.0;" width="10" x="506.5" y="392.0547"/><rect fill="#FFFFFF" height="388.5938" style="stroke:#FFFFFF;stroke-width:1.0;" width="10" x="677.5" y="111.8594"/><line style="stroke:#000000;stroke-width:1.0;" x1="677.5" x2="677.5" y1="111.8594" y2="500.4531"/><line style="stroke:#000000;stroke-width:1.0;" x1="687.5" x2="687.5" y1="111.8594" y2="500.4531"/><line style="stroke:#000000;stroke-width:1.0;" x1="677.5" x2="687.5" y1="111.8594" y2="111.8594"/><rect fill="#FFFFFF" height="159.6641" style="stroke:#FFFFFF;stroke-width:1.0;" width="10" x="677.5" y="528.4531"/><line style="stroke:#000000;stroke-width:1.0;" x1="677.5" x2="677.5" y1="528.4531" y2="688.1172"/><line style="stroke:#000000;stroke-width:1.0;" x1="687.5" x2="687.5" y1="528.4531" y2="688.1172"/><rect fill="#FFFFFF" height="122.5313" style="stroke:#000000;stroke-width:1.0;" width="10" x="682.5" y="362.9219"/><rect fill="#FFFFFF" height="29.1328" style="stroke:#000000;stroke-width:1.0;" width="10" x="682.5" y="578.7188"/><line style="stroke:#000000;stroke-width:1.0;" x1="682.5" x2="729.5" y1="98.8594" y2="98.8594"/><line style="stroke:#000000;stroke-width:1.0;" x1="729.5" x2="729.5" y1="98.8594" y2="111.8594"/><line style="stroke:#000000;stroke-width:1.0;" x1="688.5" x2="729.5" y1="111.8594" y2="111.8594"/><polygon fill="#000000" points="698.5,107.8594,688.5,111.8594,698.5,115.8594,694.5,111.8594" style="stroke:#000000;stroke-width:1.0;"/><text fill="#000000" font-family="Verdana" font-size="13" font-weight="bold" lengthAdjust="spacing" textLength="23" x="694.5" y="93.7935">1.1</text><text fill="#000000" font-family="Verdana" font-size="13" lengthAdjust="spacing" textLength="29" x="721.5" y="93.7935">Boot</text><polygon fill="#000000" points="527.5,141.9922,517.5,145.9922,527.5,149.9922,523.5,145.9922" style="stroke:#000000;stroke-width:1.0;"/><line style="stroke:#000000;stroke-width:1.0;" x1="521.5" x2="676.5" y1="145.9922" y2="145.9922"/><text fill="#000000" font-family="Verdana" font-size="13" font-weight="bold" lengthAdjust="spacing" textLength="23" x="533.5" y="140.9263">1.2</text><text fill="#000000" font-family="Verdana" font-size="13" lengthAdjust="spacing" textLength="115" x="560.5" y="140.9263">ssp_register(uuid)</text><polygon fill="#000000" points="348.5,171.125,338.5,175.125,348.5,179.125,344.5,175.125" style="stroke:#000000;stroke-width:1.0;"/><line style="stroke:#000000;stroke-width:1.0;" x1="342.5" x2="505.5" y1="175.125" y2="175.125"/><text fill="#000000" font-family="Verdana" font-size="13" font-weight="bold" lengthAdjust="spacing" textLength="22" x="354.5" y="170.0591">1.3</text><text fill="#000000" font-family="Verdana" font-size="13" lengthAdjust="spacing" textLength="63" x="380.5" y="170.0591">Save uuid</text><polygon fill="#000000" points="494.5,200.2578,504.5,204.2578,494.5,208.2578,498.5,204.2578" style="stroke:#000000;stroke-width:1.0;"/><line style="stroke:#000000;stroke-width:1.0;stroke-dasharray:2.0,2.0;" x1="332.5" x2="500.5" y1="204.2578" y2="204.2578"/><text fill="#000000" font-family="Verdana" font-size="13" font-weight="bold" lengthAdjust="spacing" textLength="23" x="339.5" y="199.1919">1.4</text><text fill="#000000" font-family="Verdana" font-size="13" lengthAdjust="spacing" textLength="0" x="370.5" y="199.1919"/><polygon fill="#000000" points="665.5,229.3906,675.5,233.3906,665.5,237.3906,669.5,233.3906" style="stroke:#000000;stroke-width:1.0;"/><line style="stroke:#000000;stroke-width:1.0;stroke-dasharray:2.0,2.0;" x1="511.5" x2="671.5" y1="233.3906" y2="233.3906"/><text fill="#000000" font-family="Verdana" font-size="13" font-weight="bold" lengthAdjust="spacing" textLength="23" x="518.5" y="228.3247">1.5</text><text fill="#000000" font-family="Verdana" font-size="13" lengthAdjust="spacing" textLength="0" x="549.5" y="228.3247"/><line style="stroke:#000000;stroke-width:1.0;" x1="68.5" x2="115.5" y1="257.5234" y2="257.5234"/><line style="stroke:#000000;stroke-width:1.0;" x1="115.5" x2="115.5" y1="257.5234" y2="270.5234"/><line style="stroke:#000000;stroke-width:1.0;" x1="74.5" x2="115.5" y1="270.5234" y2="270.5234"/><polygon fill="#000000" points="84.5,266.5234,74.5,270.5234,84.5,274.5234,80.5,270.5234" style="stroke:#000000;stroke-width:1.0;"/><text fill="#000000" font-family="Verdana" font-size="13" font-weight="bold" lengthAdjust="spacing" textLength="23" x="80.5" y="252.4575">2.1</text><text fill="#000000" font-family="Verdana" font-size="13" lengthAdjust="spacing" textLength="31" x="107.5" y="252.4575">Load</text><polygon fill="#000000" points="315.5,300.6563,325.5,304.6563,315.5,308.6563,319.5,304.6563" style="stroke:#000000;stroke-width:1.0;"/><line style="stroke:#000000;stroke-width:1.0;" x1="73.5" x2="321.5" y1="304.6563" y2="304.6563"/><text fill="#000000" font-family="Verdana" font-size="13" font-weight="bold" lengthAdjust="spacing" textLength="23" x="80.5" y="299.5903">2.2</text><text fill="#000000" font-family="Verdana" font-size="13" lengthAdjust="spacing" textLength="208" x="107.5" y="299.5903">nsp_register(uuid, notif_handler)</text><polygon fill="#000000" points="84.5,329.7891,74.5,333.7891,84.5,337.7891,80.5,333.7891" style="stroke:#000000;stroke-width:1.0;"/><line style="stroke:#000000;stroke-width:1.0;stroke-dasharray:2.0,2.0;" x1="78.5" x2="331.5" y1="333.7891" y2="333.7891"/><text fill="#000000" font-family="Verdana" font-size="13" font-weight="bold" lengthAdjust="spacing" textLength="22" x="90.5" y="328.7231">2.3</text><text fill="#000000" font-family="Verdana" font-size="13" lengthAdjust="spacing" textLength="0" x="120.5" y="328.7231"/><polygon fill="#000000" points="703.5,358.9219,693.5,362.9219,703.5,366.9219,699.5,362.9219" style="stroke:#000000;stroke-width:1.0;"/><line style="stroke:#000000;stroke-width:1.0;" x1="697.5" x2="796.5" y1="362.9219" y2="362.9219"/><text fill="#000000" font-family="Verdana" font-size="13" font-weight="bold" lengthAdjust="spacing" textLength="22" x="709.5" y="357.856">3.1</text><text fill="#000000" font-family="Verdana" font-size="13" lengthAdjust="spacing" textLength="55" x="735.5" y="357.856">Interrupt</text><polygon fill="#000000" points="527.5,388.0547,517.5,392.0547,527.5,396.0547,523.5,392.0547" style="stroke:#000000;stroke-width:1.0;"/><line style="stroke:#000000;stroke-width:1.0;" x1="521.5" x2="681.5" y1="392.0547" y2="392.0547"/><text fill="#000000" font-family="Verdana" font-size="13" font-weight="bold" lengthAdjust="spacing" textLength="22" x="533.5" y="386.9888">3.2</text><text fill="#000000" font-family="Verdana" font-size="13" lengthAdjust="spacing" textLength="103" x="559.5" y="386.9888">ssp_notify(uuid)</text><polygon fill="#000000" points="348.5,417.1875,338.5,421.1875,348.5,425.1875,344.5,421.1875" style="stroke:#000000;stroke-width:1.0;"/><line style="stroke:#000000;stroke-width:1.0;" x1="342.5" x2="505.5" y1="421.1875" y2="421.1875"/><text fill="#000000" font-family="Verdana" font-size="13" font-weight="bold" lengthAdjust="spacing" textLength="21" x="354.5" y="416.1216">3.3</text><text fill="#000000" font-family="Verdana" font-size="13" lengthAdjust="spacing" textLength="55" x="379.5" y="416.1216">Interrupt</text><polygon fill="#000000" points="670.5,446.3203,680.5,450.3203,670.5,454.3203,674.5,450.3203" style="stroke:#000000;stroke-width:1.0;"/><line style="stroke:#000000;stroke-width:1.0;stroke-dasharray:2.0,2.0;" x1="511.5" x2="676.5" y1="450.3203" y2="450.3203"/><text fill="#000000" font-family="Verdana" font-size="13" font-weight="bold" lengthAdjust="spacing" textLength="22" x="518.5" y="445.2544">3.4</text><text fill="#000000" font-family="Verdana" font-size="13" lengthAdjust="spacing" textLength="52" x="544.5" y="445.2544">Handled</text><line style="stroke:#000000;stroke-width:1.0;stroke-dasharray:2.0,2.0;" x1="692.5" x2="734.5" y1="484.4531" y2="484.4531"/><line style="stroke:#000000;stroke-width:1.0;stroke-dasharray:2.0,2.0;" x1="734.5" x2="734.5" y1="484.4531" y2="497.4531"/><line style="stroke:#000000;stroke-width:1.0;stroke-dasharray:2.0,2.0;" x1="687.5" x2="734.5" y1="497.4531" y2="497.4531"/><polygon fill="#000000" points="697.5,493.4531,687.5,497.4531,697.5,501.4531,693.5,497.4531" style="stroke:#000000;stroke-width:1.0;"/><text fill="#000000" font-family="Verdana" font-size="13" font-weight="bold" lengthAdjust="spacing" textLength="22" x="699.5" y="479.3872">3.5</text><text fill="#000000" font-family="Verdana" font-size="13" lengthAdjust="spacing" textLength="52" x="725.5" y="479.3872">Handled</text><polygon fill="#000000" points="89.5,545.5859,79.5,549.5859,89.5,553.5859,85.5,549.5859" style="stroke:#000000;stroke-width:1.0;"/><line style="stroke:#000000;stroke-width:1.0;" x1="83.5" x2="326.5" y1="549.5859" y2="549.5859"/><text fill="#000000" font-family="Verdana" font-size="13" font-weight="bold" lengthAdjust="spacing" textLength="22" x="95.5" y="544.52">3.6</text><text fill="#000000" font-family="Verdana" font-size="13" lengthAdjust="spacing" textLength="94" x="121.5" y="544.52">notif_handler()</text><polygon fill="#000000" points="670.5,574.7188,680.5,578.7188,670.5,582.7188,674.5,578.7188" style="stroke:#000000;stroke-width:1.0;"/><line style="stroke:#000000;stroke-width:1.0;" x1="78.5" x2="676.5" y1="578.7188" y2="578.7188"/><text fill="#000000" font-family="Verdana" font-size="13" font-weight="bold" lengthAdjust="spacing" textLength="22" x="85.5" y="573.6528">3.7</text><text fill="#000000" font-family="Verdana" font-size="13" lengthAdjust="spacing" textLength="237" x="111.5" y="573.6528">TEEC_InvokeCommand(commandID)</text><polygon fill="#000000" points="89.5,603.8516,79.5,607.8516,89.5,611.8516,85.5,607.8516" style="stroke:#000000;stroke-width:1.0;"/><line style="stroke:#000000;stroke-width:1.0;stroke-dasharray:2.0,2.0;" x1="83.5" x2="676.5" y1="607.8516" y2="607.8516"/><text fill="#000000" font-family="Verdana" font-size="13" font-weight="bold" lengthAdjust="spacing" textLength="22" x="95.5" y="602.7856">3.8</text><text fill="#000000" font-family="Verdana" font-size="13" lengthAdjust="spacing" textLength="0" x="125.5" y="602.7856"/><polygon fill="#000000" points="315.5,632.9844,325.5,636.9844,315.5,640.9844,319.5,636.9844" style="stroke:#000000;stroke-width:1.0;"/><line style="stroke:#000000;stroke-width:1.0;stroke-dasharray:2.0,2.0;" x1="73.5" x2="321.5" y1="636.9844" y2="636.9844"/><text fill="#000000" font-family="Verdana" font-size="13" font-weight="bold" lengthAdjust="spacing" textLength="22" x="80.5" y="631.9185">3.9</text><text fill="#000000" font-family="Verdana" font-size="13" lengthAdjust="spacing" textLength="0" x="110.5" y="631.9185"/><line style="stroke:#000000;stroke-width:1.0;stroke-dasharray:2.0,2.0;" x1="337.5" x2="379.5" y1="671.1172" y2="671.1172"/><line style="stroke:#000000;stroke-width:1.0;stroke-dasharray:2.0,2.0;" x1="379.5" x2="379.5" y1="671.1172" y2="684.1172"/><line style="stroke:#000000;stroke-width:1.0;stroke-dasharray:2.0,2.0;" x1="332.5" x2="379.5" y1="684.1172" y2="684.1172"/><polygon fill="#000000" points="342.5,680.1172,332.5,684.1172,342.5,688.1172,338.5,684.1172" style="stroke:#000000;stroke-width:1.0;"/><text fill="#000000" font-family="Verdana" font-size="13" font-weight="bold" lengthAdjust="spacing" textLength="32" x="344.5" y="666.0513">3.10</text><text fill="#000000" font-family="Verdana" font-size="13" lengthAdjust="spacing" textLength="52" x="380.5" y="666.0513">Handled</text><!--MD5=[e783f88aa4d8f1c8e205e72321922664]
@startuml
!theme plain
autonumber 1.1

skinparam SequenceBoxBorderColor #bbbbbb

box "Normal world"
participant "Normal\nSSP driver" as nsd
participant "Normal controller" as normcont
end box
box "Secure world"
participant "Secure controller" as seccont
participant "Secure\nSSP driver" as ssd
end box

ssd -> ssd ++: Boot
    ssd -> seccont ++: ssp_register(uuid)
        seccont -> normcont ++: Save uuid
            return
        return

autonumber inc A
nsd -> nsd ++: Load
    nsd -> normcont ++: nsp_register(uuid, notif_handler)
        return

autonumber inc A
ssd <- ++: Interrupt
    ssd -> seccont ++: ssp_notify(uuid)
        seccont -> normcont ++: Interrupt
            seccont - -> ssd - -: Handled
        ssd - -> ssd - -: Handled

...

normcont -> nsd ++: notif_handler()
    nsd -> ssd ++: TEEC_InvokeCommand(commandID)
        return
    return
normcont - -> normcont - -: Handled
@enduml

@startuml







<style>
  root {
    BackgroundColor white
    FontColor black
    FontName Verdana
    HyperLinkColor blue
    LineColor black
    LineThickness 1
    Margin 5
  }
  caption {
    LineThickness 0
  }
  footer {
    LineThickness 0
  }
  header {
    LineThickness 0
  }
  node {
    MaximumWidth 300
  }
  title {
    FontSize 22
    LineThickness 0
  }
</style>

skinparam ArrowLollipopColor black
skinparam BackgroundColor white
skinparam DefaultFontName Verdana
skinparam DefaultMonospacedFontName Courier
skinparam LifelineStrategy nosolid
skinparam ParticipantPadding 10
skinparam SequenceLifeLineBorderColor black
skinparam Shadowing false
skinparam UseBetaStyle true

skinparam Activity {
  BackgroundColor white
  BarColor black
  BorderColor black
  FontColor black
  FontName Verdana
}
skinparam Boundary {
  FontColor black
}
skinparam Box {
  Padding 5
}
skinparam CircledCharacter {
  FontColor black
  FontName Courier
  Radius 9
}
skinparam Class {
  BackgroundColor white
  BorderColor black
  FontColor black
  FontName Verdana
}
skinparam ClassAttribute {
  FontColor black
  FontName Verdana
}
skinparam ClassStereotype {
  FontColor black
  FontName Verdana
}
skinparam Footer {
  FontColor black
  FontName Verdana
}
skinparam Header {
  FontColor black
  FontName Verdana
}
skinparam Hyperlink {
  Color blue
}
skinparam IconPackage {
  Color black
  BackgroundColor white
}
skinparam IconPrivate {
  Color black
  BackgroundColor white
}
skinparam IconProtected {
  Color black
  BackgroundColor white
}
skinparam IconPublic {
  Color black
  BackgroundColor white
}
skinparam Note {
  FontColor black
  FontName Verdana
}
skinparam Package {
  BorderColor black
  FontColor black
  FontName Verdana
}
skinparam State {
  BackgroundColor white
  BorderColor black
}
skinparam StereotypeA {
  BackgroundColor white
  BorderColor black
}
skinparam StereotypeC {
  BackgroundColor white
  BorderColor black
}
skinparam StereotypeE {
  BackgroundColor white
  BorderColor black
}
skinparam StereotypeI {
  BackgroundColor white
  BorderColor black
}
skinparam StereotypeN {
  BackgroundColor white
  BorderColor black
}
skinparam UseCaseStereoType {
  FontColor black
  FontName Verdana
}
autonumber 1.1

skinparam SequenceBoxBorderColor #bbbbbb

box "Normal world"
participant "Normal\nSSP driver" as nsd
participant "Normal controller" as normcont
end box
box "Secure world"
participant "Secure controller" as seccont
participant "Secure\nSSP driver" as ssd
end box

ssd -> ssd ++: Boot
    ssd -> seccont ++: ssp_register(uuid)
        seccont -> normcont ++: Save uuid
            return
        return

autonumber inc A
nsd -> nsd ++: Load
    nsd -> normcont ++: nsp_register(uuid, notif_handler)
        return

autonumber inc A
ssd <- ++: Interrupt
    ssd -> seccont ++: ssp_notify(uuid)
        seccont -> normcont ++: Interrupt
            seccont - -> ssd - -: Handled
        ssd - -> ssd - -: Handled

...

normcont -> nsd ++: notif_handler()
    nsd -> ssd ++: TEEC_InvokeCommand(commandID)
        return
    return
normcont - -> normcont - -: Handled
@enduml

PlantUML version 1.2021.13beta3(Unknown compile time)
(GPL source distribution)
Java Runtime: Java(TM) SE Runtime Environment
JVM: Java HotSpot(TM) 64-Bit Server VM
Default Encoding: UTF-8
Language: en
Country: US
--></g></svg>